<?xml version="1.0" encoding="UTF-8" standalone="no"?>
<!-- Created with Inkscape (http://www.inkscape.org/) -->

<svg
   width="512"
   height="512"
   viewBox="0 0 135.46666 135.46666"
   version="1.1"
   id="svg1"
   inkscape:export-filename="BV_2.png"
   inkscape:export-xdpi="96"
   inkscape:export-ydpi="96"
   xmlns:inkscape="http://www.inkscape.org/namespaces/inkscape"
   xmlns:sodipodi="http://sodipodi.sourceforge.net/DTD/sodipodi-0.dtd"
   xmlns="http://www.w3.org/2000/svg"
   xmlns:svg="http://www.w3.org/2000/svg">
  <sodipodi:namedview
     id="namedview1"
     pagecolor="#ffffff"
     bordercolor="#000000"
     borderopacity="0.25"
     inkscape:showpageshadow="2"
     inkscape:pageopacity="0.0"
     inkscape:pagecheckerboard="0"
     inkscape:deskcolor="#d1d1d1"
     inkscape:document-units="mm">
    <inkscape:page
       x="0"
       y="0"
       width="135.46666"
       height="135.46666"
       id="page2"
       margin="0"
       bleed="0" />
  </sodipodi:namedview>
  <defs
     id="defs1" />
  <g
     inkscape:label="Calque 1"
     inkscape:groupmode="layer"
     id="layer1">
    <g
       id="g3"
       transform="translate(-174.77387,46.763449)">
      <path
         style="fill:#18181b;fill-opacity:1;stroke-width:4.0177"
         d="m 186.30578,10.872233 c 9.68565,62.217965 118.12753,36.223896 77.45196,13.303303 -15.06304,-8.487986 19.8315,-13.358071 22.2325,2.023838 3.67762,23.560586 -32.47617,49.219544 -67.83674,41.637584 -46.37636,-9.94395 -31.84772,-56.964725 -31.84772,-56.964725 z"
         id="path2-1"
         sodipodi:nodetypes="csssc" />
      <path
         style="fill:#5754c7;fill-opacity:1;stroke-width:4.0177"
         d="m 191.0757,24.166747 c 19.50163,11.608109 75.46296,1.280525 48.63799,-17.760413 -26.00217,-18.456897 51.77218,-10.331223 50.03096,22.287576 -0.3485,6.528456 35.15191,-53.710714 -18.92122,-55.835017 -65.00543,-2.553786 -99.24935,39.699742 -79.74773,51.307854 z"
         id="path1-1"
         sodipodi:nodetypes="sssss" />
    </g>
  </g>
</svg>
